# xmcd CD database file
#
# Track frame offsets:
#	150
#	25109
#	50148
#	69690
#	79385
#	83739
#	101987
#	118527
#	130465
#	152083
#	166123
#	182769
#
# Disc length: 2674 seconds
#
# Revision: 1
# Processed by: cddbd v1.5PL3 Copyright (c) Steve Scherf et al.
# Submitted via: CDex 1.51
#
DISCID=a20a700c
DTITLE=S.E.N.S - KAISHIN(The God of the Sea)
DYEAR=1988
DGENRE=New Age
TTITLE0=THE GOD OF THE SEA
TTITLE1=OLYMPUS
TTITLE2=AMPHORA ~ Jar of the Mediterra
TTITLE3=COCHIN
TTITLE4=THE DEEP SEA
TTITLE5=SIGIRIYA LADY
TTITLE6=THE SOUTHERN CROSS
TTITLE7=MARCH TO MOSQUE
TTITLE8=BOSPORUS
TTITLE9=FELUCCA
TTITLE10=KAGERO
TTITLE11=APHRODITE
EXTD=YEAR: 1988
EXTT0=
EXTT1=
EXTT2=
EXTT3=
EXTT4=
EXTT5=
EXTT6=
EXTT7=
EXTT8=
EXTT9=
EXTT10=
EXTT11=
PLAYORDER=
